#!OML:ASF I:\golf\golf\golf 2\Subject 1\2002-09-07\Subject1.ASF
:FULLY-SPECIFIED
:DEGREES
453
root 2.01698 17.7569 -5.30795 4.09382 2.58382 -5.06077
lowerback 0.230035 0.111314 -3.37572
upperback 0.690112 0.131878 5.08401
thorax 0.564125 0.0333075 7.19626
lowerneck -24.3017 -3.17626 -0.483573
upperneck 14.9607 -4.06784 -0.391748
head 8.62457 -1.98386 -0.631052
rclavicle -3.52843e-015 3.18055e-015
rhumerus -36.3617 -16.6095 -70.9801
rradius 26.6781
rwrist -5.91316
rhand -15.3451 5.33773
rfingers 7.12502
rthumb 10.8319 -24.3629
lclavicle -3.52843e-015 3.18055e-015
lhumerus -26.6423 4.3192 81.9446
lradius 23.7788
lwrist 1.73763
lhand -10.1782 30.489
lfingers 7.12502
lthumb 15.812 59.8632
rfemur -28.5466 -0.623289 18.7299
rtibia 26.7116
rfoot -11.2142 -6.39487
rtoes -0.676753
lfemur -11.0752 5.56741 -18.5281
ltibia 32.4583
lfoot -20.992 1.97918
ltoes -6.22358
454
root 2.01685 17.7621 -5.32766 4.10081 2.56387 -5.17669
lowerback 0.240842 0.0815985 -3.35151
upperback 0.598193 0.0941992 5.05117
thorax 0.468709 0.0195831 7.14666
lowerneck -24.0762 -3.14884 -0.402901
upperneck 14.9906 -4.05871 -0.399841
head 8.59561 -1.97635 -0.641993
rclavicle -7.7526e-015 -3.65764e-014
rhumerus -36.6826 -17.112 -70.7529
rradius 26.3813
rwrist -5.3866
rhand -15.113 5.03306
rfingers 7.12502
rthumb 11.0557 -24.6558
lclavicle -7.7526e-015 -3.65764e-014
lhumerus -26.854 5.03359 81.768
lradius 22.831
lwrist 0.792742
lhand -9.79288 30.7256
lfingers 7.12502
lthumb 16.1831 60.0701
rfemur -28.6611 -0.865843 18.9459
rtibia 26.9443
rfoot -11.3982 -6.63471
rtoes 0.0709975
lfemur -11.1947 5.58999 -18.405
ltibia 32.54
lfoot -20.9175 1.88096
ltoes -5.563
455
root 2.01782 17.7669 -5.34644 4.10803 2.58756 -5.32083
lowerback 0.18621 0.0266896 -3.26418
upperback 0.552385 0.0221475 5.03
thorax 0.462724 -0.0150051 7.07316
lowerneck -23.9411 -3.09665 -0.380941
upperneck 15.0259 -4.00205 -0.374295
head 8.58561 -1.94581 -0.627082
rclavicle 8.69683e-015 1.39149e-014
rhumerus -36.8226 -17.4917 -70.6024
rradius 25.9431
rwrist -5.23103
rhand -15.1262 5.14255
rfingers 7.12502
rthumb 11.043 -24.547
lclavicle 8.69683e-015 1.39149e-014
lhumerus -26.9307 6.01214 81.5091
lradius 21.7449
lwrist -0.402305
lhand -9.5212 30.6748
lfingers 7.12502
lthumb 16.4447 59.9978
rfemur -28.7929 -1.11877 19.1715
rtibia 27.2713
rfoot -11.5494 -6.99882
rtoes 0.818047
lfemur -11.3116 5.6341 -18.2458
ltibia 32.5965
lfoot -20.8596 1.71697
ltoes -5.02668
456
root 2.02023 17.768 -5.36243 4.09365 2.6001 -5.28715
lowerback 0.13411 -0.0212119 -3.31792
upperback 0.54715 -0.041253 4.96312
thorax 0.49588 -0.0478845 7.03279
lowerneck -23.9385 -3.05247 -0.347689
upperneck 15.0842 -3.94878 -0.398427
head 8.60416 -1.9212 -0.633892
rclavicle 5.96354e-016 2.70347e-014
rhumerus -36.9114 -17.7474 -70.5295
rradius 25.6107
rwrist -5.25894
rhand -15.1341 5.29829
rfingers 7.12502
rthumb 11.0354 -24.3916
lclavicle 5.96354e-016 2.70347e-014
lhumerus -26.9968 6.88937 81.2964
lradius 20.7596
lwrist -1.50843
lhand -9.34051 30.8994
lfingers 7.12502
lthumb 16.6186 60.2079
rfemur -28.9103 -1.46934 19.2151
rtibia 27.6789
rfoot -11.6516 -7.3491
rtoes 1.28481
lfemur -11.3735 5.57029 -18.3066
ltibia 32.6392
lfoot -20.758 1.73747
ltoes -4.63028
457
root 2.02072 17.7676 -5.37916 4.08215 2.61475 -5.2535
lowerback 0.0949513 -0.0587132 -3.38514
upperback 0.545894 -0.0907825 4.89351
thorax 0.523834 -0.0737702 6.99731
lowerneck -24.0604 -3.05201 -0.345908
upperneck 15.3085 -3.95421 -0.378547
head 8.70216 -1.91956 -0.63313
rclavicle 1.37658e-014 2.70347e-014
rhumerus -37.0802 -18.14 -70.3993
rradius 25.388
rwrist -5.09067
rhand -15.1656 5.33259
rfingers 7.12502
rthumb 11.0051 -24.3589
lclavicle 1.37658e-014 2.70347e-014
lhumerus -27.1083 7.57054 81.1476
lradius 19.9646
lwrist -2.54038
lhand -9.34898 30.4365
lfingers 7.12502
lthumb 16.6105 59.7457
rfemur -29.0582 -1.81379 19.261
rtibia 28.1896
rfoot -11.6353 -7.68661
rtoes 1.95851
lfemur -11.4272 5.4111 -18.375
ltibia 32.6564
lfoot -20.6255 1.92445
ltoes -4.62071
458
root 2.02026 17.7675 -5.39648 4.08237 2.57975 -5.2393
lowerback 0.0318485 -0.0872256 -3.45078
upperback 0.574722 -0.128641 4.8465
thorax 0.594686 -0.0958286 6.98507
lowerneck -24.3149 -3.02642 -0.458465
upperneck 15.6149 -3.9073 -0.259974
head 8.85592 -1.88794 -0.576015
rclavicle 7.05686e-015 -4.45278e-014
rhumerus -37.1365 -18.8457 -70.076
rradius 24.9696
rwrist -4.53433
rhand -15.0571 5.55287
rfingers 7.12502
rthumb 11.1097 -24.1331
lclavicle 7.05686e-015 -4.45278e-014
lhumerus -27.1134 8.51981 80.9499
lradius 19.0771
lwrist -3.86879
lhand -9.0918 30.3594
lfingers 7.12502
lthumb 16.8581 59.6476
rfemur -29.2361 -2.06316 19.3095
rtibia 28.773
rfoot -11.5194 -8.0779
rtoes 1.64554
lfemur -11.4903 5.31472 -18.4172
ltibia 32.6736
lfoot -20.5337 2.10253
ltoes -4.93702
459
root 2.01928 17.7683 -5.41356 4.05617 2.51493 -5.2723
lowerback 0.0392114 -0.105679 -3.48042
upperback 0.594771 -0.153843 4.83291
thorax 0.615021 -0.109766 6.98767
lowerneck -24.5326 -2.9631 -0.550219
upperneck 15.825 -3.79786 -0.221765
head 8.9683 -1.83592 -0.538539
rclavicle 4.37326e-015 -3.22031e-014
rhumerus -37.1789 -19.4684 -69.7334
rradius 24.5455
rwrist -3.95036
rhand -14.8123 5.7787
rfingers 7.12502
rthumb 11.3458 -23.8944
lclavicle 4.37326e-015 -3.22031e-014
lhumerus -27.1551 9.60616 80.7191
lradius 18.2087
lwrist -5.29457
lhand -8.7095 30.019
lfingers 7.12502
lthumb 17.2261 59.2755
rfemur -29.3709 -2.23619 19.3916
rtibia 29.3779
rfoot -11.5189 -8.44974
rtoes 0.667135
lfemur -11.5456 5.22076 -18.4004
ltibia 32.7344
lfoot -20.4626 2.22992
ltoes -4.76736
